# This file uses centimeters as units for non-parametric coordinates.

mtllib packingboxopen.mtl
g default
v -1.002493 -1.002493 1.002493
v 1.002493 -1.002493 1.002493
v -1.002493 1.002493 1.002493
v 1.002493 1.002493 1.002493
v -1.002493 1.002493 -1.002493
v 1.002493 1.002493 -1.002493
v -1.002493 -1.002493 -1.002493
v 1.002493 -1.002493 -1.002493
v 1.002493 0.963168 1.002493
v -1.002493 0.963168 1.002493
v -1.002493 0.963168 -1.002493
v 1.002493 0.963168 -1.002493
v 2.002036 0.001120 -1.002493
v 2.002036 0.001120 1.002493
v 2.002036 0.040445 -1.002493
v 2.002036 0.040445 1.002493
v -2.000202 -0.001999 1.002493
v -2.000202 -0.001999 -1.002493
v -2.000202 0.037326 1.002493
v -2.000202 0.037326 -1.002493
v 1.002493 0.003293 1.997374
v -1.002493 0.003293 1.997374
v 1.002493 0.042618 1.997374
v -1.002493 0.042618 1.997374
v -1.002493 0.042619 -1.999291
v 1.002493 0.042619 -1.999291
v 1.002493 0.003294 -1.999291
v -1.002493 0.003294 -1.999291
v -0.986050 -0.999138 0.986050
v 0.986050 -0.999138 0.986050
v 0.986050 -0.999138 -0.986050
v -0.986050 -0.999138 -0.986050
vt 0.645982 0.854930
vt 0.767479 0.708989
vt 0.603613 0.116006
vt 0.001819 0.549236
vt 0.194170 0.381103
vt 0.191405 0.194344
vt 0.378164 0.191578
vt 0.380930 0.378338
vt 0.580412 0.116024
vt 0.383733 0.179893
vt 0.621538 0.587493
vt 0.500041 0.733433
vt 0.001819 0.391555
vt 0.603246 0.097089
vt 0.621798 0.097088
vt 0.626447 0.097088
vt 0.835250 0.123172
vt 0.546503 0.132094
vt 0.546137 0.113149
vt 0.835616 0.104228
vt 0.580046 0.097089
vt 0.874512 0.098874
vt 0.383733 0.022132
vt 0.598615 0.097088
vt 0.831506 0.123684
vt 0.546503 0.180296
vt 0.546137 0.161335
vt 0.804912 0.123684
vt 0.567704 0.187213
vt 0.187040 0.004804
vt 0.004631 0.385468
vt 0.385295 0.567877
vt 0.478460 0.468379
vt 0.740651 0.444414
vt 0.886592 0.565911
vt 0.910557 0.828102
vt 0.380928 0.876512
vt 0.356963 0.614320
vt 0.789061 0.974043
vt 0.526869 0.998008
vt 0.549706 0.138134
vt 0.564733 0.161335
vt 0.564715 0.113149
vt 0.854195 0.104228
vt 0.598981 0.116024
vt 0.565098 0.180296
vt 0.622164 0.116006
vt 0.565081 0.132093
vt 0.568668 0.138500
vt 0.001819 0.195594
vt 0.719249 0.117809
vt 0.376914 0.001992
vt 0.645365 0.097455
vt 0.195420 0.570689
vt 0.853829 0.123172
vt 0.570516 0.377088
vt 0.732699 0.282692
vt 0.732699 0.440699
vt 0.574692 0.440699
vt 0.574692 0.282692
vt 0.753158 0.447839
vt 0.753158 0.289831
vt 0.911165 0.289831
vt 0.911165 0.447839
vt 0.774574 0.123684
vt 0.774574 0.097089
vt 0.801168 0.097089
vt 0.801168 0.123684
vt 0.001819 0.713424
vt 0.001819 0.555742
vt 0.159500 0.555742
vt 0.159500 0.713424
vt 0.770829 0.123684
vt 0.744235 0.123684
vt 0.744235 0.097089
vt 0.770829 0.097089
vt 0.645365 0.116006
vt 0.626447 0.115640
vt 0.159500 0.391555
vt 0.159500 0.549236
vt 0.730866 0.276463
vt 0.572907 0.276463
vt 0.572907 0.118504
vt 0.730866 0.118504
vt 0.737096 0.283603
vt 0.737096 0.125644
vt 0.895055 0.125644
vt 0.895055 0.283603
vt 0.568668 0.157096
vt 0.549706 0.156730
vt 0.804912 0.097089
vt 0.831506 0.097089
vt 0.159579 0.031055
vt 0.159579 0.188816
vt 0.001819 0.188816
vt 0.001819 0.031055
vt 0.719615 0.098873
vt 0.738185 0.098873
vt 0.737819 0.117809
vt 0.901107 0.098874
vt 0.901107 0.125469
vt 0.874512 0.125469
vt 0.541493 0.022132
vt 0.541493 0.179893
vn 0.000000 0.000000 1.000000
vn 0.000000 0.000000 1.000000
vn 0.000000 0.000000 1.000000
vn 0.000000 0.000000 1.000000
vn 0.000000 1.000000 0.000000
vn 0.000000 1.000000 0.000000
vn 0.000000 1.000000 0.000000
vn 0.000000 1.000000 0.000000
vn 0.000000 0.000000 -1.000000
vn 0.000000 0.000000 -1.000000
vn 0.000000 0.000000 -1.000000
vn 0.000000 0.000000 -1.000000
vn 0.000000 -1.000000 0.000000
vn 0.000000 -1.000000 0.000000
vn 0.000000 -1.000000 0.000000
vn 0.000000 -1.000000 0.000000
vn 1.000000 0.000000 0.000000
vn 1.000000 0.000000 0.000000
vn 1.000000 0.000000 0.000000
vn 1.000000 0.000000 0.000000
vn -1.000000 0.000000 0.000000
vn -1.000000 0.000000 0.000000
vn -1.000000 0.000000 0.000000
vn -1.000000 0.000000 0.000000
vn 0.000000 0.000000 1.000000
vn 0.000000 0.000000 1.000000
vn 0.000000 0.000000 1.000000
vn 0.000000 0.000000 1.000000
vn -1.000000 0.000000 0.000000
vn -1.000000 0.000000 0.000000
vn -1.000000 0.000000 0.000000
vn -1.000000 0.000000 0.000000
vn 0.000000 0.000000 -1.000000
vn 0.000000 0.000000 -1.000000
vn 0.000000 0.000000 -1.000000
vn 0.000000 0.000000 -1.000000
vn 1.000000 0.000000 0.000000
vn 1.000000 0.000000 0.000000
vn 1.000000 0.000000 0.000000
vn 1.000000 0.000000 0.000000
vn -0.693464 -0.720491 0.000000
vn -0.693464 -0.720491 0.000000
vn -0.693464 -0.720491 0.000000
vn -0.693464 -0.720491 0.000000
vn -0.000002 0.000000 -1.000000
vn -0.000002 0.000000 -1.000000
vn -0.000002 0.000000 -1.000000
vn -0.000002 0.000000 -1.000000
vn 0.693464 0.720491 0.000000
vn 0.693464 0.720491 0.000000
vn 0.693464 0.720491 0.000000
vn 0.693464 0.720491 0.000000
vn -0.000003 0.000000 1.000000
vn -0.000003 0.000000 1.000000
vn -0.000003 0.000000 1.000000
vn -0.000003 0.000000 1.000000
vn 0.695288 -0.718731 0.000000
vn 0.695288 -0.718731 0.000000
vn 0.695288 -0.718731 0.000000
vn 0.695288 -0.718731 0.000000
vn 0.000000 0.000000 1.000000
vn 0.000000 0.000000 1.000000
vn 0.000000 0.000000 1.000000
vn 0.000000 0.000000 1.000000
vn -0.695288 0.718731 0.000000
vn -0.695288 0.718731 0.000000
vn -0.695288 0.718731 0.000000
vn -0.695288 0.718731 0.000000
vn 0.000000 0.000000 -1.000000
vn 0.000000 0.000000 -1.000000
vn 0.000000 0.000000 -1.000000
vn 0.000000 0.000000 -1.000000
vn 0.000000 -0.719654 -0.694333
vn 0.000000 -0.719654 -0.694333
vn 0.000000 -0.719654 -0.694333
vn 0.000000 -0.719654 -0.694333
vn 1.000000 0.000000 0.000000
vn 1.000000 0.000000 0.000000
vn 1.000000 0.000000 0.000000
vn 1.000000 0.000000 0.000000
vn 0.000000 0.719654 0.694333
vn 0.000000 0.719654 0.694333
vn 0.000000 0.719654 0.694333
vn 0.000000 0.719654 0.694333
vn -1.000000 0.000000 0.000000
vn -1.000000 0.000000 0.000000
vn -1.000000 0.000000 0.000000
vn -1.000000 0.000000 0.000000
vn 0.000000 0.720322 -0.693640
vn 0.000000 0.720322 -0.693640
vn 0.000000 0.720322 -0.693640
vn 0.000000 0.720322 -0.693640
vn 1.000000 0.000000 0.000000
vn 1.000000 0.000000 0.000000
vn 1.000000 0.000000 0.000000
vn 1.000000 0.000000 0.000000
vn 0.000000 -0.720322 0.693640
vn 0.000000 -0.720322 0.693640
vn 0.000000 -0.720322 0.693640
vn 0.000000 -0.720322 0.693640
vn -1.000000 0.000000 0.000000
vn -1.000000 0.000000 0.000000
vn -1.000000 0.000000 0.000000
vn -1.000000 0.000000 0.000000
vn 0.000000 0.008215 -0.999966
vn 0.000000 0.008215 -0.999966
vn 0.000000 0.008215 -0.999966
vn 0.000000 0.008215 -0.999966
vn -0.999966 0.008214 0.000000
vn -0.999966 0.008214 0.000000
vn -0.999966 0.008214 0.000000
vn -0.999966 0.008214 0.000000
vn 0.000000 0.008215 0.999966
vn 0.000000 0.008215 0.999966
vn 0.000000 0.008215 0.999966
vn 0.000000 0.008215 0.999966
vn 0.999966 0.008214 0.000000
vn 0.999966 0.008214 0.000000
vn 0.999966 0.008214 0.000000
vn 0.999966 0.008214 0.000000
s off
g pCube1
usemtl initialShadingGroup
f 1/1/1 2/2/2 9/36/3 10/39/4
f 29/5/5 30/6/6 31/7/7 32/8/8
f 11/38/9 12/33/10 8/11/11 7/12/12
f 7/12/13 8/11/14 2/2/15 1/1/16
f 2/2/17 8/11/18 12/34/19 9/35/20
f 7/12/21 1/1/22 10/40/23 11/37/24
f 22/73/25 21/74/26 23/75/27 24/76/28
f 18/65/29 17/66/30 19/67/31 20/68/32
f 25/22/33 26/100/34 27/101/35 28/102/36
f 14/25/37 13/28/38 15/91/39 16/92/40
f 9/85/41 12/86/42 13/87/43 14/88/44
f 12/26/45 6/27/46 15/42/47 13/46/48
f 6/81/49 4/82/50 16/83/51 15/84/52
f 4/41/53 9/49/54 14/89/55 16/90/56
f 11/61/57 10/62/58 17/63/59 18/64/60
f 10/18/61 3/19/62 19/43/63 17/48/64
f 3/57/65 5/58/66 20/59/67 19/60/68
f 5/17/69 11/20/70 18/44/71 20/55/72
f 10/4/73 9/13/74 21/79/75 22/80/76
f 9/3/77 4/14/78 23/15/79 21/47/80
f 4/69/81 3/70/82 24/71/83 23/72/84
f 3/16/85 10/53/86 22/77/87 24/78/88
f 5/93/89 6/94/90 26/95/91 25/96/92
f 6/51/93 12/97/94 27/98/95 26/99/96
f 12/10/97 11/23/98 28/103/99 27/104/100
f 11/9/101 5/21/102 25/24/103 28/45/104
f 3/31/105 4/50/106 30/6/107 29/5/108
f 4/30/109 6/52/110 31/7/111 30/6/112
f 6/29/113 5/56/114 32/8/115 31/7/116
f 5/32/117 3/54/118 29/5/119 32/8/120
